<?xml version="1.0" standalone="no"?>
<!DOCTYPE svg PUBLIC "-//W3C//DTD SVG 20010904//EN"
 "http://www.w3.org/TR/2001/REC-SVG-20010904/DTD/svg10.dtd">
<svg version="1.0" xmlns="http://www.w3.org/2000/svg"
 width="128.000000pt" height="128.000000pt" viewBox="0 0 128.000000 128.000000"
 preserveAspectRatio="xMidYMid meet">

<g transform="translate(0.000000,128.000000) scale(0.100000,-0.100000)"
fill="#000000" stroke="none">
<path d="M910 1149 c-33 -14 -115 -90 -298 -272 -139 -139 -260 -264 -268
-279 -8 -15 -14 -45 -14 -68 0 -109 106 -178 202 -131 50 24 358 328 358 353
0 19 -26 48 -42 48 -6 0 -89 -77 -184 -171 -160 -158 -175 -171 -201 -165 -36
9 -53 32 -53 70 0 26 33 64 243 273 258 260 298 290 365 279 99 -16 155 -125
109 -212 -9 -16 -159 -171 -334 -345 -248 -246 -327 -319 -356 -329 -62 -20
-157 -9 -205 23 -80 52 -118 160 -92 257 11 40 42 75 266 300 169 171 254 263
254 277 0 27 -24 46 -48 39 -10 -4 -127 -116 -260 -250 -278 -279 -296 -306
-296 -431 0 -119 60 -215 169 -273 43 -23 62 -27 135 -27 70 0 93 4 130 24 57
29 682 649 713 706 28 54 28 144 0 200 -56 107 -185 153 -293 104z"/>
</g>
</svg>
