<?xml version="1.0" standalone="no"?>
<!DOCTYPE svg PUBLIC "-//W3C//DTD SVG 20010904//EN"
 "http://www.w3.org/TR/2001/REC-SVG-20010904/DTD/svg10.dtd">
<svg version="1.0" xmlns="http://www.w3.org/2000/svg"
 width="32.000000pt" height="32.000000pt" viewBox="0 0 32.000000 32.000000"
 preserveAspectRatio="xMidYMid meet">

<g transform="translate(0.000000,32.000000) scale(0.100000,-0.100000)"
fill="#000000" stroke="none">
<path d="M88 305 c-32 -18 -46 -60 -29 -86 6 -10 11 -26 11 -34 0 -13 9 -15
53 -10 64 8 92 21 105 49 6 11 11 15 11 9 1 -7 -8 -22 -19 -33 -20 -20 -20
-20 6 -26 30 -8 31 -8 38 36 8 42 -8 74 -24 50 -8 -13 -10 -13 -10 1 0 44 -91
73 -142 44z m17 -55 c3 -5 1 -10 -4 -10 -6 0 -11 5 -11 10 0 6 2 10 4 10 3 0
8 -4 11 -10z m45 0 c0 -5 -5 -10 -11 -10 -5 0 -7 5 -4 10 3 6 8 10 11 10 2 0
4 -4 4 -10z m45 0 c3 -5 1 -10 -4 -10 -6 0 -11 5 -11 10 0 6 2 10 4 10 3 0 8
-4 11 -10z"/>
<path d="M134 146 c-10 -26 4 -48 28 -44 33 4 33 52 0 56 -13 2 -25 -3 -28
-12z"/>
<path d="M36 123 c-5 -11 -2 -21 7 -27 12 -8 9 -14 -14 -34 -16 -13 -29 -32
-29 -43 0 -15 7 -19 39 -19 33 0 40 4 44 22 l4 23 2 -22 c1 -22 6 -23 70 -23
64 0 70 2 74 23 l4 22 2 -22 c1 -19 7 -23 36 -23 50 0 57 25 18 60 -24 22 -27
29 -16 36 21 13 5 46 -21 42 -24 -3 -34 -37 -15 -49 11 -6 10 -9 -4 -15 -9 -3
-14 -11 -10 -18 3 -6 -5 -1 -19 12 -13 12 -35 22 -48 22 -13 0 -35 -10 -48
-22 -14 -13 -22 -18 -19 -12 4 7 -1 15 -10 18 -14 6 -15 9 -4 15 7 5 11 17 9
27 -4 25 -43 30 -52 7z"/>
</g>
</svg>
